<svg xmlns="http://www.w3.org/2000/svg" xmlns:xlink="http://www.w3.org/1999/xlink" version="1.1" data-diagram-type="MINDMAP" style="width:772px;height:1680px;background:#FFFFFF;" width="772px" height="1680px" viewBox="0 0 772 1680" zoomAndPan="magnify" preserveAspectRatio="none" contentStyleType="text/css"><?plantuml 1.2026.7?><defs/><g font-family="sans-serif" lengthAdjust="spacing"><rect x="10" y="819.059" width="161.223" height="41.199" fill="#1E3A5F" style="stroke:#1E3A5F;stroke-width:1.5;" rx="5" ry="5"/><text x="20" y="846.461" fill="#FFF" font-size="18" textLength="141.223" font-weight="700">呼叫中心里的 SIP</text><rect x="221.223" y="157.099" width="95" height="37.666" fill="#E8F1F8" style="stroke:#64748B;stroke-width:1.5;" rx="5" ry="5"/><text x="231.223" y="181.601" fill="#172033" font-size="15" textLength="75" font-weight="700">运营商接入</text><rect x="366.223" y="20" width="110.188" height="35.311" fill="#F8FAFC" style="stroke:#64748B;stroke-width:1.5;" rx="5" ry="5"/><text x="376.223" y="42.568" fill="#172033" font-size="13" textLength="90.188">PSTN / Carrier</text><path d="M316.223,175.932 L326.223,175.932 C341.223,175.932 341.223,37.655 356.223,37.655 L366.223,37.655" style="stroke:#181818;stroke-width:1;" fill="none"/><rect x="366.223" y="75.311" width="79.319" height="35.311" fill="#F8FAFC" style="stroke:#64748B;stroke-width:1.5;" rx="5" ry="5"/><text x="376.223" y="97.879" fill="#172033" font-size="13" textLength="59.319">SIP Trunk</text><path d="M316.223,175.932 L326.223,175.932 C341.223,175.932 341.223,92.966 356.223,92.966 L366.223,92.966" style="stroke:#181818;stroke-width:1;" fill="none"/><rect x="366.223" y="185.932" width="43.474" height="35.311" fill="#F8FAFC" style="stroke:#64748B;stroke-width:1.5;" rx="5" ry="5"/><text x="376.223" y="208.5" fill="#172033" font-size="13" textLength="23.474">SBC</text><rect x="459.696" y="130.621" width="111" height="35.311" fill="#F8F9FA" style="stroke:#64748B;stroke-width:1.5;" rx="5" ry="5"/><text x="469.696" y="153.189" fill="#172033" font-size="13" textLength="91">来源校验与限流</text><path d="M409.696,203.587 L419.696,203.587 C434.696,203.587 434.696,148.276 449.696,148.276 L459.696,148.276" style="stroke:#181818;stroke-width:1;" fill="none"/><rect x="459.696" y="185.932" width="150.946" height="35.311" fill="#F8F9FA" style="stroke:#64748B;stroke-width:1.5;" rx="5" ry="5"/><text x="469.696" y="208.5" fill="#172033" font-size="13" textLength="130.946">号码和 Header 规范化</text><path d="M409.696,203.587 L419.696,203.587 C434.696,203.587 434.696,203.587 449.696,203.587 L459.696,203.587" style="stroke:#181818;stroke-width:1;" fill="none"/><rect x="459.696" y="241.242" width="137" height="35.311" fill="#F8F9FA" style="stroke:#64748B;stroke-width:1.5;" rx="5" ry="5"/><text x="469.696" y="263.811" fill="#172033" font-size="13" textLength="117">拓扑隐藏与媒体锚定</text><path d="M409.696,203.587 L419.696,203.587 C434.696,203.587 434.696,258.897 449.696,258.897 L459.696,258.897" style="stroke:#181818;stroke-width:1;" fill="none"/><path d="M316.223,175.932 L326.223,175.932 C341.223,175.932 341.223,203.587 356.223,203.587 L366.223,203.587" style="stroke:#181818;stroke-width:1;" fill="none"/><rect x="366.223" y="296.553" width="87.825" height="35.311" fill="#F8FAFC" style="stroke:#64748B;stroke-width:1.5;" rx="5" ry="5"/><text x="376.223" y="319.121" fill="#172033" font-size="13" textLength="67.825">TLS / SRTP</text><path d="M316.223,175.932 L326.223,175.932 C341.223,175.932 341.223,314.208 356.223,314.208 L366.223,314.208" style="stroke:#181818;stroke-width:1;" fill="none"/><path d="M171.223,839.658 L181.223,839.658 C196.223,839.658 196.223,175.932 211.223,175.932 L221.223,175.932" style="stroke:#1E3A5F;stroke-width:1;" fill="none"/><rect x="221.223" y="433.651" width="80" height="37.666" fill="#E8F1F8" style="stroke:#64748B;stroke-width:1.5;" rx="5" ry="5"/><text x="231.223" y="458.153" fill="#172033" font-size="15" textLength="60" font-weight="700">呼叫路由</text><rect x="351.223" y="351.863" width="136.962" height="35.311" fill="#F8FAFC" style="stroke:#64748B;stroke-width:1.5;" rx="5" ry="5"/><text x="361.223" y="374.432" fill="#172033" font-size="13" textLength="116.962">IVR / Contact Flow</text><path d="M301.223,452.484 L311.223,452.484 C326.223,452.484 326.223,369.519 341.223,369.519 L351.223,369.519" style="stroke:#181818;stroke-width:1;" fill="none"/><rect x="351.223" y="407.174" width="103.465" height="35.311" fill="#F8FAFC" style="stroke:#64748B;stroke-width:1.5;" rx="5" ry="5"/><text x="361.223" y="429.742" fill="#172033" font-size="13" textLength="83.465">ACD / Queue</text><path d="M301.223,452.484 L311.223,452.484 C326.223,452.484 326.223,424.829 341.223,424.829 L351.223,424.829" style="stroke:#181818;stroke-width:1;" fill="none"/><rect x="351.223" y="462.484" width="94.439" height="35.311" fill="#F8FAFC" style="stroke:#64748B;stroke-width:1.5;" rx="5" ry="5"/><text x="361.223" y="485.053" fill="#172033" font-size="13" textLength="74.439">座席 SIP Leg</text><path d="M301.223,452.484 L311.223,452.484 C326.223,452.484 326.223,480.14 341.223,480.14 L351.223,480.14" style="stroke:#181818;stroke-width:1;" fill="none"/><rect x="351.223" y="517.795" width="161.902" height="35.311" fill="#F8FAFC" style="stroke:#64748B;stroke-width:1.5;" rx="5" ry="5"/><text x="361.223" y="540.363" fill="#172033" font-size="13" textLength="141.902">B2BUA 桥接多条 Dialog</text><path d="M301.223,452.484 L311.223,452.484 C326.223,452.484 326.223,535.45 341.223,535.45 L351.223,535.45" style="stroke:#181818;stroke-width:1;" fill="none"/><path d="M171.223,839.658 L181.223,839.658 C196.223,839.658 196.223,452.484 211.223,452.484 L221.223,452.484" style="stroke:#1E3A5F;stroke-width:1;" fill="none"/><rect x="221.223" y="682.549" width="95" height="37.666" fill="#E8F1F8" style="stroke:#64748B;stroke-width:1.5;" rx="5" ry="5"/><text x="231.223" y="707.051" fill="#172033" font-size="15" textLength="75" font-weight="700">交互与保活</text><rect x="366.223" y="573.105" width="160.245" height="35.311" fill="#F8FAFC" style="stroke:#64748B;stroke-width:1.5;" rx="5" ry="5"/><text x="376.223" y="595.674" fill="#172033" font-size="13" textLength="140.245">180 / 183 Early Media</text><path d="M316.223,701.382 L326.223,701.382 C341.223,701.382 341.223,590.761 356.223,590.761 L366.223,590.761" style="stroke:#181818;stroke-width:1;" fill="none"/><rect x="366.223" y="628.416" width="117.881" height="35.311" fill="#F8FAFC" style="stroke:#64748B;stroke-width:1.5;" rx="5" ry="5"/><text x="376.223" y="650.984" fill="#172033" font-size="13" textLength="97.881">PRACK / 100rel</text><path d="M316.223,701.382 L326.223,701.382 C341.223,701.382 341.223,646.071 356.223,646.071 L366.223,646.071" style="stroke:#181818;stroke-width:1;" fill="none"/><rect x="366.223" y="683.727" width="56.125" height="35.311" fill="#F8FAFC" style="stroke:#64748B;stroke-width:1.5;" rx="5" ry="5"/><text x="376.223" y="706.295" fill="#172033" font-size="13" textLength="36.125">DTMF</text><rect x="472.347" y="683.727" width="189.609" height="35.311" fill="#F8F9FA" style="stroke:#64748B;stroke-width:1.5;" rx="5" ry="5"/><text x="482.347" y="706.295" fill="#172033" font-size="13" textLength="169.609">RFC 4733 telephone-event</text><path d="M422.347,701.382 L432.347,701.382 C447.347,701.382 447.347,701.382 462.347,701.382 L472.347,701.382" style="stroke:#181818;stroke-width:1;" fill="none"/><path d="M316.223,701.382 L326.223,701.382 C341.223,701.382 341.223,701.382 356.223,701.382 L366.223,701.382" style="stroke:#181818;stroke-width:1;" fill="none"/><rect x="366.223" y="766.692" width="108.099" height="35.311" fill="#F8FAFC" style="stroke:#64748B;stroke-width:1.5;" rx="5" ry="5"/><text x="376.223" y="789.261" fill="#172033" font-size="13" textLength="88.099">Session Timer</text><rect x="524.322" y="739.037" width="81.179" height="35.311" fill="#F8F9FA" style="stroke:#64748B;stroke-width:1.5;" rx="5" ry="5"/><text x="534.322" y="761.605" fill="#172033" font-size="13" textLength="61.179">RFC 4028</text><path d="M474.322,784.348 L484.322,784.348 C499.322,784.348 499.322,756.692 514.322,756.692 L524.322,756.692" style="stroke:#181818;stroke-width:1;" fill="none"/><rect x="524.322" y="794.348" width="176.267" height="35.311" fill="#F8F9FA" style="stroke:#64748B;stroke-width:1.5;" rx="5" ry="5"/><text x="534.322" y="816.916" fill="#172033" font-size="13" textLength="156.267">re-INVITE / UPDATE 刷新</text><path d="M474.322,784.348 L484.322,784.348 C499.322,784.348 499.322,812.003 514.322,812.003 L524.322,812.003" style="stroke:#181818;stroke-width:1;" fill="none"/><path d="M316.223,701.382 L326.223,701.382 C341.223,701.382 341.223,784.348 356.223,784.348 L366.223,784.348" style="stroke:#181818;stroke-width:1;" fill="none"/><path d="M171.223,839.658 L181.223,839.658 C196.223,839.658 196.223,701.382 211.223,701.382 L221.223,701.382" style="stroke:#1E3A5F;stroke-width:1;" fill="none"/><rect x="221.223" y="931.446" width="50" height="37.666" fill="#E8F1F8" style="stroke:#64748B;stroke-width:1.5;" rx="5" ry="5"/><text x="231.223" y="955.948" fill="#172033" font-size="15" textLength="30" font-weight="700">转接</text><rect x="321.223" y="849.658" width="119.284" height="35.311" fill="#F8FAFC" style="stroke:#64748B;stroke-width:1.5;" rx="5" ry="5"/><text x="331.223" y="872.227" fill="#172033" font-size="13" textLength="99.284">REFER / NOTIFY</text><rect x="490.506" y="849.658" width="81.179" height="35.311" fill="#F8F9FA" style="stroke:#64748B;stroke-width:1.5;" rx="5" ry="5"/><text x="500.506" y="872.227" fill="#172033" font-size="13" textLength="61.179">RFC 3515</text><path d="M440.506,867.313 L450.506,867.313 C465.506,867.313 465.506,867.313 480.506,867.313 L490.506,867.313" style="stroke:#181818;stroke-width:1;" fill="none"/><path d="M271.223,950.279 L281.223,950.279 C296.223,950.279 296.223,867.313 311.223,867.313 L321.223,867.313" style="stroke:#181818;stroke-width:1;" fill="none"/><rect x="321.223" y="904.969" width="75.11" height="35.311" fill="#F8FAFC" style="stroke:#64748B;stroke-width:1.5;" rx="5" ry="5"/><text x="331.223" y="927.537" fill="#172033" font-size="13" textLength="55.11">Replaces</text><rect x="446.333" y="904.969" width="81.179" height="35.311" fill="#F8F9FA" style="stroke:#64748B;stroke-width:1.5;" rx="5" ry="5"/><text x="456.333" y="927.537" fill="#172033" font-size="13" textLength="61.179">RFC 3891</text><path d="M396.333,922.624 L406.333,922.624 C421.333,922.624 421.333,922.624 436.333,922.624 L446.333,922.624" style="stroke:#181818;stroke-width:1;" fill="none"/><path d="M271.223,950.279 L281.223,950.279 C296.223,950.279 296.223,922.624 311.223,922.624 L321.223,922.624" style="stroke:#181818;stroke-width:1;" fill="none"/><rect x="321.223" y="960.279" width="130.265" height="35.311" fill="#F8FAFC" style="stroke:#64748B;stroke-width:1.5;" rx="5" ry="5"/><text x="331.223" y="982.848" fill="#172033" font-size="13" textLength="110.265">B2BUA 平台内转接</text><path d="M271.223,950.279 L281.223,950.279 C296.223,950.279 296.223,977.935 311.223,977.935 L321.223,977.935" style="stroke:#181818;stroke-width:1;" fill="none"/><rect x="321.223" y="1015.59" width="167.088" height="35.311" fill="#F8FAFC" style="stroke:#64748B;stroke-width:1.5;" rx="5" ry="5"/><text x="331.223" y="1038.158" fill="#172033" font-size="13" textLength="147.088">盲转 / 咨询转 / 失败回退</text><path d="M271.223,950.279 L281.223,950.279 C296.223,950.279 296.223,1033.245 311.223,1033.245 L321.223,1033.245" style="stroke:#181818;stroke-width:1;" fill="none"/><path d="M171.223,839.658 L181.223,839.658 C196.223,839.658 196.223,950.279 211.223,950.279 L221.223,950.279" style="stroke:#1E3A5F;stroke-width:1;" fill="none"/><rect x="221.223" y="1207.999" width="110" height="37.666" fill="#E8F1F8" style="stroke:#64748B;stroke-width:1.5;" rx="5" ry="5"/><text x="231.223" y="1232.501" fill="#172033" font-size="15" textLength="90" font-weight="700">身份与上下文</text><rect x="381.223" y="1070.9" width="144.814" height="35.311" fill="#F8FAFC" style="stroke:#64748B;stroke-width:1.5;" rx="5" ry="5"/><text x="391.223" y="1093.469" fill="#172033" font-size="13" textLength="124.814">P-Asserted-Identity</text><rect x="576.037" y="1070.9" width="175.188" height="35.311" fill="#F8F9FA" style="stroke:#64748B;stroke-width:1.5;" rx="5" ry="5"/><text x="586.037" y="1093.469" fill="#172033" font-size="13" textLength="155.188">只信任受控 Trust Domain</text><path d="M526.037,1088.556 L536.037,1088.556 C551.037,1088.556 551.037,1088.556 566.037,1088.556 L576.037,1088.556" style="stroke:#181818;stroke-width:1;" fill="none"/><path d="M331.223,1226.832 L341.223,1226.832 C356.223,1226.832 356.223,1088.556 371.223,1088.556 L381.223,1088.556" style="stroke:#181818;stroke-width:1;" fill="none"/><rect x="381.223" y="1126.211" width="98.813" height="35.311" fill="#F8FAFC" style="stroke:#64748B;stroke-width:1.5;" rx="5" ry="5"/><text x="391.223" y="1148.779" fill="#172033" font-size="13" textLength="78.813">STIR Identity</text><rect x="530.035" y="1126.211" width="176.292" height="35.311" fill="#F8F9FA" style="stroke:#64748B;stroke-width:1.5;" rx="5" ry="5"/><text x="540.035" y="1148.779" fill="#172033" font-size="13" textLength="156.292">RFC 8224 密码学身份声明</text><path d="M480.035,1143.866 L490.035,1143.866 C505.035,1143.866 505.035,1143.866 520.035,1143.866 L530.035,1143.866" style="stroke:#181818;stroke-width:1;" fill="none"/><path d="M331.223,1226.832 L341.223,1226.832 C356.223,1226.832 356.223,1143.866 371.223,1143.866 L381.223,1143.866" style="stroke:#181818;stroke-width:1;" fill="none"/><rect x="381.223" y="1181.521" width="96.997" height="35.311" fill="#F8FAFC" style="stroke:#64748B;stroke-width:1.5;" rx="5" ry="5"/><text x="391.223" y="1204.09" fill="#172033" font-size="13" textLength="76.997">History-Info</text><rect x="528.22" y="1181.521" width="137.292" height="35.311" fill="#F8F9FA" style="stroke:#64748B;stroke-width:1.5;" rx="5" ry="5"/><text x="538.22" y="1204.09" fill="#172033" font-size="13" textLength="117.292">RFC 7044 路由历史</text><path d="M478.22,1199.177 L488.22,1199.177 C503.22,1199.177 503.22,1199.177 518.22,1199.177 L528.22,1199.177" style="stroke:#181818;stroke-width:1;" fill="none"/><path d="M331.223,1226.832 L341.223,1226.832 C356.223,1226.832 356.223,1199.177 371.223,1199.177 L381.223,1199.177" style="stroke:#181818;stroke-width:1;" fill="none"/><rect x="381.223" y="1236.832" width="104.284" height="35.311" fill="#F8FAFC" style="stroke:#64748B;stroke-width:1.5;" rx="5" ry="5"/><text x="391.223" y="1259.4" fill="#172033" font-size="13" textLength="84.284">User-to-User</text><rect x="535.507" y="1236.832" width="163.292" height="35.311" fill="#F8F9FA" style="stroke:#64748B;stroke-width:1.5;" rx="5" ry="5"/><text x="545.507" y="1259.4" fill="#172033" font-size="13" textLength="143.292">RFC 7433 透传约定数据</text><path d="M485.507,1254.487 L495.507,1254.487 C510.507,1254.487 510.507,1254.487 525.507,1254.487 L535.507,1254.487" style="stroke:#181818;stroke-width:1;" fill="none"/><path d="M331.223,1226.832 L341.223,1226.832 C356.223,1226.832 356.223,1254.487 371.223,1254.487 L381.223,1254.487" style="stroke:#181818;stroke-width:1;" fill="none"/><rect x="381.223" y="1292.143" width="183.763" height="35.311" fill="#F8FAFC" style="stroke:#64748B;stroke-width:1.5;" rx="5" ry="5"/><text x="391.223" y="1314.711" fill="#172033" font-size="13" textLength="163.763">Contact ID / CRM Context</text><path d="M331.223,1226.832 L341.223,1226.832 C356.223,1226.832 356.223,1309.798 371.223,1309.798 L381.223,1309.798" style="stroke:#181818;stroke-width:1;" fill="none"/><rect x="381.223" y="1347.453" width="161.464" height="35.311" fill="#F8FAFC" style="stroke:#64748B;stroke-width:1.5;" rx="5" ry="5"/><text x="391.223" y="1370.021" fill="#172033" font-size="13" textLength="141.464">Reason / Q.850 Cause</text><path d="M331.223,1226.832 L341.223,1226.832 C356.223,1226.832 356.223,1365.108 371.223,1365.108 L381.223,1365.108" style="stroke:#181818;stroke-width:1;" fill="none"/><path d="M171.223,839.658 L181.223,839.658 C196.223,839.658 196.223,1226.832 211.223,1226.832 L221.223,1226.832" style="stroke:#1E3A5F;stroke-width:1;" fill="none"/><rect x="221.223" y="1512.207" width="125" height="37.666" fill="#E8F1F8" style="stroke:#64748B;stroke-width:1.5;" rx="5" ry="5"/><text x="231.223" y="1536.709" fill="#172033" font-size="15" textLength="105" font-weight="700">录音与可观测性</text><rect x="396.223" y="1430.419" width="62.193" height="35.311" fill="#F8FAFC" style="stroke:#64748B;stroke-width:1.5;" rx="5" ry="5"/><text x="406.223" y="1452.987" fill="#172033" font-size="13" textLength="42.193">SIPREC</text><rect x="508.416" y="1402.764" width="150.292" height="35.311" fill="#F8F9FA" style="stroke:#64748B;stroke-width:1.5;" rx="5" ry="5"/><text x="518.416" y="1425.332" fill="#172033" font-size="13" textLength="130.292">RFC 7865 录音元数据</text><path d="M458.416,1448.074 L468.416,1448.074 C483.416,1448.074 483.416,1420.419 498.416,1420.419 L508.416,1420.419" style="stroke:#181818;stroke-width:1;" fill="none"/><rect x="508.416" y="1458.074" width="137.292" height="35.311" fill="#F8F9FA" style="stroke:#64748B;stroke-width:1.5;" rx="5" ry="5"/><text x="518.416" y="1480.643" fill="#172033" font-size="13" textLength="117.292">RFC 7866 录音协议</text><path d="M458.416,1448.074 L468.416,1448.074 C483.416,1448.074 483.416,1475.729 498.416,1475.729 L508.416,1475.729" style="stroke:#181818;stroke-width:1;" fill="none"/><path d="M346.223,1531.04 L356.223,1531.04 C371.223,1531.04 371.223,1448.074 386.223,1448.074 L396.223,1448.074" style="stroke:#181818;stroke-width:1;" fill="none"/><rect x="396.223" y="1513.385" width="160.359" height="35.311" fill="#F8FAFC" style="stroke:#64748B;stroke-width:1.5;" rx="5" ry="5"/><text x="406.223" y="1535.953" fill="#172033" font-size="13" textLength="140.359">Call-ID 与 SIP Leg 映射</text><path d="M346.223,1531.04 L356.223,1531.04 C371.223,1531.04 371.223,1531.04 386.223,1531.04 L396.223,1531.04" style="stroke:#181818;stroke-width:1;" fill="none"/><rect x="396.223" y="1568.695" width="155.827" height="35.311" fill="#F8FAFC" style="stroke:#64748B;stroke-width:1.5;" rx="5" ry="5"/><text x="406.223" y="1591.264" fill="#172033" font-size="13" textLength="135.827">RTP 丢包 / 抖动 / 时延</text><path d="M346.223,1531.04 L356.223,1531.04 C371.223,1531.04 371.223,1586.351 386.223,1586.351 L396.223,1586.351" style="stroke:#181818;stroke-width:1;" fill="none"/><rect x="396.223" y="1624.006" width="212.582" height="35.311" fill="#F8FAFC" style="stroke:#64748B;stroke-width:1.5;" rx="5" ry="5"/><text x="406.223" y="1646.574" fill="#172033" font-size="13" textLength="192.582">Queue / Agent / CRM 业务事件</text><path d="M346.223,1531.04 L356.223,1531.04 C371.223,1531.04 371.223,1641.661 386.223,1641.661 L396.223,1641.661" style="stroke:#181818;stroke-width:1;" fill="none"/><path d="M171.223,839.658 L181.223,839.658 C196.223,839.658 196.223,1531.04 211.223,1531.04 L221.223,1531.04" style="stroke:#1E3A5F;stroke-width:1;" fill="none"/><?plantuml-src xLLRJnj757xthnYf3scGJ7m3DbLKOHPlOmKejGrL7nVl0LPPTgtPTHDQHIBXaXOSJ4Y0r14jf3X4f5nonR63-3CxY_qlUdPs7GngsXzG7goTyvtBV7Fc6vzkqvAfDQ7goeIS2rmYYTiMwAPgwCGO9T_BcWNqaadIoK4YKO1-Z2EwOO59HWrAH4EtvAn5HD0nZkHD85dP1BCT2zq0o15hN3M9QUHf5iW8cAe2206Xe2j0GI7fuM_GpJ55bSUeF44mWKAE6ae-guveq1wuPbgJ6dmTy3ds-d4_1mWomOBkWf0UENjpZ1fvNH4D3Qbz8GdILIdEVNsg3ZxQ6UkA2JqSbP2yZuQx8g5ebACfhmJLyJpX48S6PKLHzR6cwUQbrP-0XDsCE_ZxIe6SDVvbwFBdk8GJqNY7T9vB2thAvTQuQi6vVOHJssq56J4qvUpMuSzkdH2ai2ISAzZndmKZb_-bht59_CTEt0bSk-9VLg2Di8SVMV6bNTbbnzED-uMJqemheq1R6waVBzMNocnbpbaiizaoGcraC9qP85U8A5Eg0kMGAxeCpUitFQj7TBzjn5alEzKbPsEpiLEmAukDtvQSTtSz5oiUdcpSPSi5SXraL1YfRy_K2zEiiEgdBZnoVdtOA2tLrugOodQMxQD7ZSSbjbVYUsJwqiWXdSfmcju1weVx9uzVSNToEELIz4KlQSOj3iV5NeI_oqCUkCsgswooo-dtmHY7UY8zGt7YR9RT4s-LdFLDWZhM3DTBxEgMNLr6FlRnklEsnXF2GWXhXeKeISXKcoJzWE_3QrGgBjvmVQ4G1Or3lPb-oJjWIX99h2iQ9HPea1itT0Z2Z_WulGw2oHzsHftmEkp7XoA2Pr489WU6ava4bXyQx8tZWlrowAmUy4ix-Wl9yqAfX9HmEp7mRIOf_N1QATg1ok86v3Gv2sQBIxWQRka4-_265G_Ot6nBrPEdhz72icpvHNt_cR_UUbL_MsPFVszCJN4MrPTsxSZjLMNUhYmug_UzfWJZfWdK0YMOLF2ygZNPLCIEVRnfrsgikEOiRhjwCYtIQqp8gkur9PDCaRCvBbyX4eaHjZ_docdtkRSh-_F0URB8iwwhfcNGoM1I7pLEaxf2iHZnzC8MvrZnDOyTGc91omYwtvRO6DvIOwfeVzmugJv70Jeh1yw3FPxHL5ZIrPMOwkS0tBRytiecNY8Ahbte2E63mNzThjQZbSOVRrnL5_Vhs_USTmlEr7Rp7QKIOilMGcU77yvcfq_t_UJjR7eV5EjxFYLPquB81-itXKsS9nliOCOZbHb4rpDMc4LYplmgct_XBjRUizfx7i1V1qBnCUoqVogxKcBpctPrmSQWRXm9pIaKw3upb2u6mCK0k1W05mFWOW3yRmP0k3qIYdIsT_qD?></g></svg>