<svg xmlns="http://www.w3.org/2000/svg" xmlns:xlink="http://www.w3.org/1999/xlink" version="1.1" data-diagram-type="MINDMAP" style="width:778px;height:1569px;background:#FFFFFF;" width="778px" height="1569px" viewBox="0 0 778 1569" zoomAndPan="magnify" preserveAspectRatio="none" contentStyleType="text/css"><?plantuml 1.2026.7?><defs/><g font-family="sans-serif" lengthAdjust="spacing"><rect x="10" y="763.748" width="223.836" height="41.199" fill="#1E3A5F" style="stroke:#1E3A5F;stroke-width:1.5;" rx="5" ry="5"/><text x="20" y="791.15" fill="#FFF" font-size="18" textLength="203.836" font-weight="700">gitman：自然语言到 git</text><rect x="283.836" y="74.133" width="50" height="37.666" fill="#F8F9FA" style="stroke:#181818;stroke-width:1.5;" rx="5" ry="5"/><text x="293.836" y="98.635" fill="#000" font-size="15" textLength="30" font-weight="700">起因</text><rect x="383.836" y="20" width="220.833" height="35.311" fill="#F8F9FA" style="stroke:#181818;stroke-width:1.5;" rx="5" ry="5"/><text x="393.836" y="42.568" fill="#000" font-size="13" textLength="200.833">cheatsheet 改了 17 版还是记不住</text><path d="M333.836,92.966 L343.836,92.966 C358.836,92.966 358.836,37.655 373.836,37.655 L383.836,37.655" style="stroke:#181818;stroke-width:1;" fill="none"/><rect x="383.836" y="75.311" width="189" height="35.311" fill="#F8F9FA" style="stroke:#181818;stroke-width:1.5;" rx="5" ry="5"/><text x="393.836" y="97.879" fill="#000" font-size="13" textLength="169">查手册要先知道查什么关键词</text><path d="M333.836,92.966 L343.836,92.966 C358.836,92.966 358.836,92.966 373.836,92.966 L383.836,92.966" style="stroke:#181818;stroke-width:1;" fill="none"/><rect x="383.836" y="130.621" width="234.538" height="35.311" fill="#F8F9FA" style="stroke:#181818;stroke-width:1.5;" rx="5" ry="5"/><text x="393.836" y="153.189" fill="#000" font-size="13" textLength="214.538">commit message 得重读自己的 diff</text><path d="M333.836,92.966 L343.836,92.966 C358.836,92.966 358.836,148.276 373.836,148.276 L383.836,148.276" style="stroke:#181818;stroke-width:1;" fill="none"/><path d="M233.836,784.348 L243.836,784.348 C258.836,784.348 258.836,92.966 273.836,92.966 L283.836,92.966" style="stroke:#1E3A5F;stroke-width:1;" fill="none"/><rect x="283.836" y="240.064" width="80" height="37.666" fill="#F8F9FA" style="stroke:#181818;stroke-width:1.5;" rx="5" ry="5"/><text x="293.836" y="264.566" fill="#000" font-size="15" textLength="60" font-weight="700">核心循环</text><rect x="413.836" y="185.932" width="230.266" height="35.311" fill="#F8F9FA" style="stroke:#181818;stroke-width:1.5;" rx="5" ry="5"/><text x="423.836" y="208.5" fill="#000" font-size="13" textLength="210.266">ask → plan → confirm → execute</text><path d="M363.836,258.897 L373.836,258.897 C388.836,258.897 388.836,203.587 403.836,203.587 L413.836,203.587" style="stroke:#181818;stroke-width:1;" fill="none"/><rect x="413.836" y="241.242" width="206.583" height="35.311" fill="#F8F9FA" style="stroke:#181818;stroke-width:1.5;" rx="5" ry="5"/><text x="423.836" y="263.811" fill="#000" font-size="13" textLength="186.583">CLI 为主，serve 起本地 Web UI</text><path d="M363.836,258.897 L373.836,258.897 C388.836,258.897 388.836,258.897 403.836,258.897 L413.836,258.897" style="stroke:#181818;stroke-width:1;" fill="none"/><rect x="413.836" y="296.553" width="244.123" height="35.311" fill="#F8F9FA" style="stroke:#181818;stroke-width:1.5;" rx="5" ry="5"/><text x="423.836" y="319.121" fill="#000" font-size="13" textLength="60.201" text-decoration="line-through">dry-run /</text><text x="488.15" y="319.121" fill="#000" font-size="13" textLength="159.809">yes / --force-destructive</text><path d="M363.836,258.897 L373.836,258.897 C388.836,258.897 388.836,314.208 403.836,314.208 L413.836,314.208" style="stroke:#181818;stroke-width:1;" fill="none"/><path d="M233.836,784.348 L243.836,784.348 C258.836,784.348 258.836,258.897 273.836,258.897 L283.836,258.897" style="stroke:#1E3A5F;stroke-width:1;" fill="none"/><rect x="283.836" y="433.651" width="211.14" height="37.666" fill="#F8F9FA" style="stroke:#181818;stroke-width:1.5;" rx="5" ry="5"/><text x="293.836" y="458.153" fill="#000" font-size="15" textLength="191.14" font-weight="700">护栏一：argv 不是 shell 串</text><rect x="544.976" y="351.863" width="203.206" height="35.311" fill="#F8F9FA" style="stroke:#181818;stroke-width:1.5;" rx="5" ry="5"/><text x="554.976" y="374.432" fill="#000" font-size="13" textLength="183.206">只吐 JSON，args 是字符串数组</text><path d="M494.976,452.484 L504.976,452.484 C519.976,452.484 519.976,369.519 534.976,369.519 L544.976,369.519" style="stroke:#181818;stroke-width:1;" fill="none"/><rect x="544.976" y="407.174" width="185.033" height="35.311" fill="#F8F9FA" style="stroke:#181818;stroke-width:1.5;" rx="5" ry="5"/><text x="554.976" y="429.742" fill="#000" font-size="13" textLength="165.033">shell=False，自己拼 git -C</text><path d="M494.976,452.484 L504.976,452.484 C519.976,452.484 519.976,424.829 534.976,424.829 L544.976,424.829" style="stroke:#181818;stroke-width:1;" fill="none"/><rect x="544.976" y="462.484" width="155.561" height="35.311" fill="#F8F9FA" style="stroke:#181818;stroke-width:1.5;" rx="5" ry="5"/><text x="554.976" y="485.053" fill="#000" font-size="13" textLength="135.561">禁二进制 + 元字符校验</text><path d="M494.976,452.484 L504.976,452.484 C519.976,452.484 519.976,480.14 534.976,480.14 L544.976,480.14" style="stroke:#181818;stroke-width:1;" fill="none"/><rect x="544.976" y="517.795" width="212.283" height="35.311" fill="#F8F9FA" style="stroke:#181818;stroke-width:1.5;" rx="5" ry="5"/><text x="554.976" y="540.363" fill="#000" font-size="13" textLength="192.283">-m 后面开口子（消息可含 $ &amp;）</text><path d="M494.976,452.484 L504.976,452.484 C519.976,452.484 519.976,535.45 534.976,535.45 L544.976,535.45" style="stroke:#181818;stroke-width:1;" fill="none"/><path d="M233.836,784.348 L243.836,784.348 C258.836,784.348 258.836,452.484 273.836,452.484 L283.836,452.484" style="stroke:#1E3A5F;stroke-width:1;" fill="none"/><rect x="283.836" y="654.894" width="140" height="37.666" fill="#F8F9FA" style="stroke:#181818;stroke-width:1.5;" rx="5" ry="5"/><text x="293.836" y="679.396" fill="#000" font-size="15" textLength="120" font-weight="700">护栏二：三级分类</text><rect x="473.836" y="573.105" width="125.162" height="35.311" fill="#F8F9FA" style="stroke:#181818;stroke-width:1.5;" rx="5" ry="5"/><text x="483.836" y="595.674" fill="#000" font-size="13" textLength="105.162">read-only 直接跑</text><path d="M423.836,673.727 L433.836,673.727 C448.836,673.727 448.836,590.761 463.836,590.761 L473.836,590.761" style="stroke:#181818;stroke-width:1;" fill="none"/><rect x="473.836" y="628.416" width="120.153" height="35.311" fill="#F8F9FA" style="stroke:#181818;stroke-width:1.5;" rx="5" ry="5"/><text x="483.836" y="650.984" fill="#000" font-size="13" textLength="100.153">mutating 问一次</text><path d="M423.836,673.727 L433.836,673.727 C448.836,673.727 448.836,646.071 463.836,646.071 L473.836,646.071" style="stroke:#181818;stroke-width:1;" fill="none"/><rect x="473.836" y="683.727" width="237.483" height="35.311" fill="#F8F9FA" style="stroke:#181818;stroke-width:1.5;" rx="5" ry="5"/><text x="483.836" y="706.295" fill="#000" font-size="13" textLength="217.483">destructive 再问一次，--yes 不覆盖</text><path d="M423.836,673.727 L433.836,673.727 C448.836,673.727 448.836,701.382 463.836,701.382 L473.836,701.382" style="stroke:#181818;stroke-width:1;" fill="none"/><rect x="473.836" y="739.037" width="202" height="35.311" fill="#F8F9FA" style="stroke:#181818;stroke-width:1.5;" rx="5" ry="5"/><text x="483.836" y="761.605" fill="#000" font-size="13" textLength="182">执行前重新分类，不信模型标记</text><path d="M423.836,673.727 L433.836,673.727 C448.836,673.727 448.836,756.692 463.836,756.692 L473.836,756.692" style="stroke:#181818;stroke-width:1;" fill="none"/><path d="M233.836,784.348 L243.836,784.348 C258.836,784.348 258.836,673.727 273.836,673.727 L283.836,673.727" style="stroke:#1E3A5F;stroke-width:1;" fill="none"/><rect x="283.836" y="903.791" width="214.941" height="37.666" fill="#F8F9FA" style="stroke:#181818;stroke-width:1.5;" rx="5" ry="5"/><text x="293.836" y="928.293" fill="#000" font-size="15" textLength="194.941" font-weight="700">护栏三：message 来自 diff</text><rect x="548.777" y="794.348" width="182.481" height="35.311" fill="#F8F9FA" style="stroke:#181818;stroke-width:1.5;" rx="5" ry="5"/><text x="558.777" y="816.916" fill="#000" font-size="13" textLength="162.481">先 status/diff 拿 snapshot</text><path d="M498.777,922.624 L508.777,922.624 C523.777,922.624 523.777,812.003 538.777,812.003 L548.777,812.003" style="stroke:#181818;stroke-width:1;" fill="none"/><rect x="548.777" y="849.658" width="176" height="35.311" fill="#F8F9FA" style="stroke:#181818;stroke-width:1.5;" rx="5" ry="5"/><text x="558.777" y="872.227" fill="#000" font-size="13" textLength="156">不许发明快照里没有的路径</text><path d="M498.777,922.624 L508.777,922.624 C523.777,922.624 523.777,867.313 538.777,867.313 L548.777,867.313" style="stroke:#181818;stroke-width:1;" fill="none"/><rect x="548.777" y="904.969" width="138.72" height="35.311" fill="#F8F9FA" style="stroke:#181818;stroke-width:1.5;" rx="5" ry="5"/><text x="558.777" y="927.537" fill="#000" font-size="13" textLength="118.72">diff 截断 8000 字符</text><path d="M498.777,922.624 L508.777,922.624 C523.777,922.624 523.777,922.624 538.777,922.624 L548.777,922.624" style="stroke:#181818;stroke-width:1;" fill="none"/><rect x="548.777" y="960.279" width="115.558" height="35.311" fill="#F8F9FA" style="stroke:#181818;stroke-width:1.5;" rx="5" ry="5"/><text x="558.777" y="982.848" fill="#000" font-size="13" textLength="95.558">敏感串先 redact</text><path d="M498.777,922.624 L508.777,922.624 C523.777,922.624 523.777,977.935 538.777,977.935 L548.777,977.935" style="stroke:#181818;stroke-width:1;" fill="none"/><rect x="548.777" y="1015.59" width="187.013" height="35.311" fill="#F8F9FA" style="stroke:#181818;stroke-width:1.5;" rx="5" ry="5"/><text x="558.777" y="1038.158" fill="#000" font-size="13" textLength="167.013">没改动就返回 None，不硬编</text><path d="M498.777,922.624 L508.777,922.624 C523.777,922.624 523.777,1033.245 538.777,1033.245 L548.777,1033.245" style="stroke:#181818;stroke-width:1;" fill="none"/><path d="M233.836,784.348 L243.836,784.348 C258.836,784.348 258.836,922.624 273.836,922.624 L283.836,922.624" style="stroke:#1E3A5F;stroke-width:1;" fill="none"/><rect x="283.836" y="1152.688" width="110" height="37.666" fill="#F8F9FA" style="stroke:#181818;stroke-width:1.5;" rx="5" ry="5"/><text x="293.836" y="1177.19" fill="#000" font-size="15" textLength="90" font-weight="700">护栏四：边界</text><rect x="443.836" y="1070.9" width="144.287" height="35.311" fill="#F8F9FA" style="stroke:#181818;stroke-width:1.5;" rx="5" ry="5"/><text x="453.836" y="1093.469" fill="#000" font-size="13" textLength="124.287">不配置 LLM 就不联网</text><path d="M393.836,1171.521 L403.836,1171.521 C418.836,1171.521 418.836,1088.556 433.836,1088.556 L443.836,1088.556" style="stroke:#181818;stroke-width:1;" fill="none"/><rect x="443.836" y="1126.211" width="189" height="35.311" fill="#F8F9FA" style="stroke:#181818;stroke-width:1.5;" rx="5" ry="5"/><text x="453.836" y="1148.779" fill="#000" font-size="13" textLength="169">仓库只从起点解析，不向外找</text><path d="M393.836,1171.521 L403.836,1171.521 C418.836,1171.521 418.836,1143.866 433.836,1143.866 L443.836,1143.866" style="stroke:#181818;stroke-width:1;" fill="none"/><rect x="443.836" y="1181.521" width="146.299" height="35.311" fill="#F8F9FA" style="stroke:#181818;stroke-width:1.5;" rx="5" ry="5"/><text x="453.836" y="1204.09" fill="#000" font-size="13" textLength="126.299">Web UI 绑 127.0.0.1</text><path d="M393.836,1171.521 L403.836,1171.521 C418.836,1171.521 418.836,1199.177 433.836,1199.177 L443.836,1199.177" style="stroke:#181818;stroke-width:1;" fill="none"/><rect x="443.836" y="1236.832" width="199.931" height="35.311" fill="#F8F9FA" style="stroke:#181818;stroke-width:1.5;" rx="5" ry="5"/><text x="453.836" y="1259.4" fill="#000" font-size="13" textLength="179.931">/api/execute 换仓库直接 403</text><path d="M393.836,1171.521 L403.836,1171.521 C418.836,1171.521 418.836,1254.487 433.836,1254.487 L443.836,1254.487" style="stroke:#181818;stroke-width:1;" fill="none"/><path d="M233.836,784.348 L243.836,784.348 C258.836,784.348 258.836,1171.521 273.836,1171.521 L283.836,1171.521" style="stroke:#1E3A5F;stroke-width:1;" fill="none"/><rect x="283.836" y="1318.62" width="95" height="37.666" fill="#F8F9FA" style="stroke:#181818;stroke-width:1.5;" rx="5" ry="5"/><text x="293.836" y="1343.122" fill="#000" font-size="15" textLength="75" font-weight="700">敢说不确定</text><rect x="428.836" y="1292.143" width="186.417" height="35.311" fill="#F8F9FA" style="stroke:#181818;stroke-width:1.5;" rx="5" ry="5"/><text x="438.836" y="1314.711" fill="#000" font-size="13" textLength="166.417">undo 歧义时只返回只读命令</text><path d="M378.836,1337.453 L388.836,1337.453 C403.836,1337.453 403.836,1309.798 418.836,1309.798 L428.836,1309.798" style="stroke:#181818;stroke-width:1;" fill="none"/><rect x="428.836" y="1347.453" width="172.255" height="35.311" fill="#F8F9FA" style="stroke:#181818;stroke-width:1.5;" rx="5" ry="5"/><text x="438.836" y="1370.021" fill="#000" font-size="13" textLength="152.255">warnings 是一等公民字段</text><path d="M378.836,1337.453 L388.836,1337.453 C403.836,1337.453 403.836,1365.108 418.836,1365.108 L428.836,1365.108" style="stroke:#181818;stroke-width:1;" fill="none"/><path d="M233.836,784.348 L243.836,784.348 C258.836,784.348 258.836,1337.453 273.836,1337.453 L283.836,1337.453" style="stroke:#1E3A5F;stroke-width:1;" fill="none"/><rect x="283.836" y="1456.896" width="50" height="37.666" fill="#F8F9FA" style="stroke:#181818;stroke-width:1.5;" rx="5" ry="5"/><text x="293.836" y="1481.398" fill="#000" font-size="15" textLength="30" font-weight="700">成本</text><rect x="383.836" y="1402.764" width="232.189" height="35.311" fill="#F8F9FA" style="stroke:#181818;stroke-width:1.5;" rx="5" ry="5"/><text x="393.836" y="1425.332" fill="#000" font-size="13" textLength="212.189">942 行源码 / 686 行测试 / 60 用例</text><path d="M333.836,1475.729 L343.836,1475.729 C358.836,1475.729 358.836,1420.419 373.836,1420.419 L383.836,1420.419" style="stroke:#181818;stroke-width:1;" fill="none"/><rect x="383.836" y="1458.074" width="187.984" height="35.311" fill="#F8F9FA" style="stroke:#181818;stroke-width:1.5;" rx="5" ry="5"/><text x="393.836" y="1480.643" fill="#000" font-size="13" textLength="167.984">5 个 commit，两周业余时间</text><path d="M333.836,1475.729 L343.836,1475.729 C358.836,1475.729 358.836,1475.729 373.836,1475.729 L383.836,1475.729" style="stroke:#181818;stroke-width:1;" fill="none"/><rect x="383.836" y="1513.385" width="259.04" height="35.311" fill="#F8F9FA" style="stroke:#181818;stroke-width:1.5;" rx="5" ry="5"/><text x="393.836" y="1535.953" fill="#000" font-size="13" textLength="239.04">spec 先行：proposal + design + tasks</text><path d="M333.836,1475.729 L343.836,1475.729 C358.836,1475.729 358.836,1531.04 373.836,1531.04 L383.836,1531.04" style="stroke:#181818;stroke-width:1;" fill="none"/><path d="M233.836,784.348 L243.836,784.348 C258.836,784.348 258.836,1475.729 273.836,1475.729 L283.836,1475.729" style="stroke:#1E3A5F;stroke-width:1;" fill="none"/><?plantuml-src XLLRRnfN47xdLupKgcfTOOCTNrAbLL8tIAdSj6fKzNa3ntWLs4MxYrEtYcGQWo60WHfVQXmR7Dz4pCMfBzmC_wNQStPvyb_ex5cxTXjL5KBCpFbcpimtCuVxgYOeMb2KV44XvBYdQdC1yeNZIlzA5FoA48HV702Ix2DS0FXIy3xpAt9OyatA0Lc13pmJdhkU1_piUzkiI4G1jukRlXDyFb7oNwiUMTAUY3yJS8-W_WA_d_b8I9lvsFN9VyLtFnnvCEhXPrEYHDwtMZ5jw_CPKIF_kcVYHhVAWwTomFVFgztNLzyuZVwlq_3xJdP5BnptXgw8T0o0NzI2WdJPsJ0NoyR2cLchc8VpD5wt3Xm30s2UdjD24QK1yCuGGLDd2D60vPjwAmRkSJ0ISREtpjPhPhMkDzBwHOPZsVOUIoHfB6NkHsWqRcplzIFBQDJRytepJgD_zFDLivQsuyh1eAX1aAYgu2T0kslznRHPQsD6zFpOs5W0dpWzRIN3YWtQUqcxPMEfnbq5zHdy6ViDGW51ue9NbgP59SXbyXFnXf5k2pWvzGZqHajlj2yxAPKeiyIgZ6qUqSqw_4YUmW-FECxfz2bpJYKimH3ASqJblzEouYLE7r4r9UpLn5d2atcrouePlJ6Fv0cAVnRZfv47G8O20LJUyO0qKwRPB7pzvDl7U3FYL40GhQmPH_k8OIjrext0aTplSuyGK0aYxU9PicCr0foJ76BiH_HMokmLQFmCFWKQVMa7OiLIlvoo2mW2pIxrN-_GpZpDlA6Lx6KdpixYB5AZcHhDleKFuQFBJk9M1QqKLg0t4aRhWCPZnd6R1rA8u7FAKc0EZC89MzepptFS7WnhWcOjJ7-jYiMpen8tto87Q2pzzo6MOlE8x9ZxCQEmQiz7ui0ifMWYZQrcgtNxNiHQ8zGhiSCItKgouY8ErMsg4vZezPYmrtl8qVLe8D7HEE1heONL8Si6BDa3LH92weoiSO2LGBL1CpcslaHxRuteGNynnTwLs6O2Pymyhz6ktGZRFLvcgnMOSBbSO9DivxsIOGlRs3ZhEeNu1AyTt8gJRz9NXxH-RFRojB05ZsM9s1KPfIEZitfJ22qKh8NhDesLr7Lg_MZQkAZ2rDGtW26iN2DvuyAcN6ylqzOoJfBUNiAfDNvjcWTls5RMZawpERgxoX9TZhLd6Ons3jp3uuCk_BZvmP0G4eUkLW9OUiSEQlSMxhX6U7ehEsRjX6TSfTKDxeVld0oiSg0t4spj39EmoxE4MflcBlJsBiSz5nG9nuAFDxRUg2Hez8ZLSqWUgvxowF4iBXm7txqp3DX_rieQnGYksDZ46DTFasPjnT9TOEGFzMwIeqUHeFBLCy5htgMvGxsneL_yZYdrrqxi_GaHhpK560VP3IboI5Q50Au9ZgRebr3GyBbG7VS9_djS_QCut8F3hk6nmV6_0000?></g></svg>